<?xml version="1.0" encoding="utf-8"?>
<!-- Generator: Adobe Illustrator 22.0.1, SVG Export Plug-In . SVG Version: 6.00 Build 0)  -->
<svg version="1.1" id="Layer_1" xmlns="http://www.w3.org/2000/svg" xmlns:xlink="http://www.w3.org/1999/xlink" x="0px" y="0px"
	 viewBox="0 0 456.3 168.9" style="enable-background:new 0 0 456.3 168.9;" xml:space="preserve">
<style type="text/css">
	.st0{clip-path:url(#SVGID_2_);fill:#6058A8;}
	.st1{clip-path:url(#SVGID_4_);fill:#6058A8;}
	.st2{clip-path:url(#SVGID_6_);fill:#6058A8;}
	.st3{clip-path:url(#SVGID_8_);fill:#6058A8;}
	.st4{clip-path:url(#SVGID_10_);fill:#6058A8;}
	.st5{clip-path:url(#SVGID_12_);fill:#6058A8;}
	.st6{clip-path:url(#SVGID_14_);fill:#6058A8;}
	.st7{clip-path:url(#SVGID_16_);fill:#6058A8;}
	.st8{clip-path:url(#SVGID_18_);fill:#6058A8;}
	.st9{clip-path:url(#SVGID_20_);fill:#6058A8;}
	.st10{clip-path:url(#SVGID_22_);fill:#6058A8;}
	.st11{clip-path:url(#SVGID_24_);fill:#6058A8;}
	.st12{clip-path:url(#SVGID_26_);fill:#6058A8;}
	.st13{clip-path:url(#SVGID_28_);fill:#6058A8;}
	.st14{clip-path:url(#SVGID_30_);fill:#6058A8;}
	.st15{clip-path:url(#SVGID_32_);fill:#6058A8;}
	.st16{clip-path:url(#SVGID_34_);fill:#6058A8;}
	.st17{clip-path:url(#SVGID_36_);fill:#6058A8;}
	.st18{clip-path:url(#SVGID_38_);fill:#6058A8;}
	.st19{fill:#6058A8;}
</style>
<g>
	<g>
		<g>
			<g>
				<defs>
					<rect id="SVGID_1_" x="-72.1" y="-179.4" width="560.4" height="527.7"/>
				</defs>
				<clipPath id="SVGID_2_">
					<use xlink:href="#SVGID_1_"  style="overflow:visible;"/>
				</clipPath>
				<path class="st0" d="M1.8,58.6c0.5-2,0.9-3.9,1.4-5.9c3.8-15,16.2-25.9,31.6-28.3c15.1-2.4,30.1-5.3,45.2-7.9
					c8.1-1.4,16-3.1,24.2-3.8c18.9-1.7,36.7,12.2,39.8,32.6c2.5,16.1,5.7,32.1,8.4,48.2c1.4,8.5,3.8,16.9,3.4,25.8
					c-0.7,16.2-13.1,31.2-29.1,34.3c-15.3,3-30.8,5.5-46.2,8.3c-8.3,1.5-16.6,2.8-24.8,4.3c-0.5,0.3-2.1,0.3-2.5,0.3
					c-1.9,0.6-3.1,0.1-4.8-0.1c-0.5-0.2-1.1-0.2-1.6-0.3c-14.4-2.1-24.6-10-30.2-23.3c-1.7-3.8-2.2-8.2-3-12.4
					c-3.2-18-6.3-35.9-9.6-53.9c-0.7-3.7-1.5-7.5-2.2-11.2v-6.6L1.8,58.6L1.8,58.6z M43.9,45.8c-0.3,9-0.6,18-0.9,26.9
					c-0.2,5.1-0.3,10.2-0.5,15.3c-0.5,12.2-0.9,24.5-1.5,36.7c-0.1,2.4,1.2,2.5,2.8,2.4c1.6-0.1,3.7,0.8,3.8-2.3
					c0.4-11.2,1.1-22.3,1.4-33.4c0.2-7.8,0.1-15.6,0.1-23.5c3.2,17.5,5.9,34.9,8.7,52.4c0.9,5.7,1.1,5.7,6.2,5.5
					c1.4-0.1,1.9-0.5,2.1-1.9c1.8-11.2,3.7-22.3,5.6-33.4c1.3-7.5,2.4-15,3.6-22.5c0.6,8.3,0.5,16.6,0.6,24.8
					c0.2,10.5,0.7,20.9,1.1,31.4c0.1,2.9,0.4,2.9,4.3,3c2.4,0.1,2.8-1,2.7-3.1c-0.6-12.2-1.1-24.5-1.5-36.7
					c-0.5-12.1-0.8-24.4-1.2-36.5c-0.1-1.6-0.3-3.4-0.5-5.4c-2,0-3.8,0.1-5.7,0c-1.9-0.1-2.5,0.7-2.8,2.4c-0.5,3.8-1.1,7.6-1.7,11.4
					c-2.7,17.6-5.5,35.3-8.2,52.9c-1.1-8.1-2.2-16.2-3.4-24.4c-1.7-11.7-3.6-23.3-5.3-35C52.6,44.9,52.4,44.6,43.9,45.8 M93.6,86.4
					c0,12.6,0.1,25.2-0.1,37.8c0,2,0.5,2.9,2.7,2.9c7.9-0.1,15.7-0.1,23.5,0c2.7,0.1,2.7-1.5,2.8-3.4c0-1.9-0.3-3-2.6-3
					c-5.6,0.1-11.2,0-16.9,0.1c-1.7,0-2.5-0.4-2.4-2.3c0.1-3.5,0.1-7,0-10.5c-0.1-2,0.7-2.5,2.6-2.4c4.2,0.1,8.4-0.1,12.6,0.1
					c2.8,0.1,2.3-1.8,2.4-3.5s-0.1-3-2.4-2.9c-4.2,0.1-8.4-0.1-12.6,0.1c-1.9,0.1-2.5-0.5-2.5-2.4c0.1-14.3,0.1-28.7,0-43
					c0-2,0.7-2.4,2.6-2.4c5.6,0.1,11.1-0.1,16.6,0.1c2.4,0.1,2.8-1,2.8-3c0-2-0.3-3.2-2.8-3.1c-7.7,0.1-15.5,0.1-23.2,0
					c-2.4-0.1-3,0.9-3,3.1C93.7,61.1,93.6,73.8,93.6,86.4"/>
			</g>
		</g>
		<g>
			<g>
				<defs>
					<rect id="SVGID_3_" x="-72.1" y="-179.4" width="560.4" height="527.7"/>
				</defs>
				<clipPath id="SVGID_4_">
					<use xlink:href="#SVGID_3_"  style="overflow:visible;"/>
				</clipPath>
				<path class="st1" d="M208.5,63.9c-0.2,0-0.4,0-0.5-0.1c-0.1-0.6-0.1-1.2-0.2-1.7c-0.4-3.6-0.6-7.3-1.2-10.9
					c-1.9-11.1-4-22.1-5.9-33.1c-1-5.4,0.3-4.4-5.4-4.4c-0.1,0-0.3,0-0.3,0c-0.9-0.1-1.3,0.3-1.3,1.3c-0.2,5.6-0.5,11.2-0.7,16.8
					c-0.2,5.4-0.3,10.9-0.5,16.4c-0.1,3.6-0.4,7.3-0.5,11c-0.2,4.9-0.3,9.8-0.5,14.7c0,0.3,0.2,0.9,0.3,0.9c1.3,0.1,2.6,0.3,3.9,0.1
					c0.5-0.1,0.9-1.4,0.9-2.2c0.3-6.1,0.6-12.4,0.7-18.5c0.2-8.2,0.3-16.4,0.4-24.6c0-0.5,0.1-1,0.1-1.5c0.5,0.7,0.7,1.4,0.9,2.1
					c0.7,5.1,1.2,10.2,2,15.3c1.3,8.1,2.8,16.2,4.2,24.4c0.7,4.1,0.7,4.1,4.8,3.8c0.5-0.1,1.3-0.7,1.3-1.1c0.5-2.2,0.9-4.6,1.3-6.9
					c1.5-9.1,3-18.2,4.5-27.2c0.5-3.3,1.1-6.7,1.5-10c0.2,0,0.3,0,0.5,0.1c0,0.6,0,1.3,0,1.9c-0.1,3.3-0.4,6.6-0.3,9.8
					c0.3,10.7,0.7,21.4,1,32.1c0.1,3-0.3,2.8,2.8,2.8c0.1,0,0.1,0,0.2,0c1.7,0.3,2.3-0.3,2.2-2.1c-0.4-8.5-0.7-17.1-1.1-25.7
					c-0.4-9.6-0.7-19.3-1.1-28.9c-0.4-4.8-0.4-4.8-5.4-4.6c-0.9,0.1-1.3,0.3-1.5,1.3c-0.7,4.8-1.5,9.4-2.2,14.1
					c-1.6,10.3-3,20.5-4.6,30.8C208.9,61.3,208.7,62.6,208.5,63.9"/>
			</g>
		</g>
		<g>
			<g>
				<defs>
					<rect id="SVGID_5_" x="-72.1" y="-179.4" width="560.4" height="527.7"/>
				</defs>
				<clipPath id="SVGID_6_">
					<use xlink:href="#SVGID_5_"  style="overflow:visible;"/>
				</clipPath>
				<path class="st2" d="M332.5,39.8c0,7.9-0.1,15.7,0,23.6c0.1,8.7,8.1,14.4,16.3,11.6c4.6-1.6,7.9-6.1,7.9-11.3
					c0.1-7.9,0-15.9,0.1-23.7c0-8.1,0-16.2,0-24.3c0-0.6-0.1-1.6-0.3-1.6c-1.5-0.1-3-0.3-4.4-0.1c-0.3,0.1-0.5,1.4-0.5,2.2
					c0,14.9,0,29.7,0,44.6c0,1.4-0.1,2.8-0.3,4.1c-0.4,3.6-2.7,5.7-6.3,6c-3,0.2-5.7-1.6-6.5-4.9c-0.5-1.8-0.7-3.6-0.7-5.5
					c-0.1-14.5,0-29,0-43.5c0-3.8,0.3-3.1-3.2-3.3c-1.6-0.1-2,0.4-2,2C332.5,23.7,332.5,31.8,332.5,39.8"/>
			</g>
		</g>
		<g>
			<g>
				<defs>
					<rect id="SVGID_7_" x="-72.1" y="-179.4" width="560.4" height="527.7"/>
				</defs>
				<clipPath id="SVGID_8_">
					<use xlink:href="#SVGID_7_"  style="overflow:visible;"/>
				</clipPath>
				<path class="st3" d="M367.4,44.3c0,9.6,0,19.3,0,28.9c0,1.3,0.3,1.8,1.7,1.8c6.2-0.1,12.5-0.1,18.7,0c1.3,0,1.8-0.3,1.6-1.6
					c-0.1-0.4-0.1-0.9,0-1.3c0.3-1.6-0.4-2.1-2-2.1c-4.2,0.1-8.4,0-12.6,0.1c-1.5,0-2-0.5-2-2c0.1-2.5,0.1-5,0-7.5
					c-0.1-1.3,0.5-1.8,1.8-1.8c2.8,0.1,5.6,0.1,8.5,0c3.4,0,3,0.5,3.1-3c0.1-1.3-0.4-1.8-1.7-1.7c-3.2,0.1-6.5,0-9.7,0.1
					c-1.4,0.1-1.9-0.3-1.9-1.8c0.1-10.7,0.1-21.3,0-32c0-1.3,0.4-1.8,1.8-1.8c4.4,0.1,8.8,0,13.1,0.1c1.3,0,1.9-0.3,1.6-1.6
					c-0.1-0.4-0.1-0.9,0-1.3c0.2-1.4-0.3-2-1.9-1.9c-6.1,0.1-12.1,0.1-18.2,0c-1.6,0-2,0.4-2,2C367.4,25.2,367.4,34.7,367.4,44.3"/>
			</g>
		</g>
		<g>
			<g>
				<defs>
					<rect id="SVGID_9_" x="-72.1" y="-179.4" width="560.4" height="527.7"/>
				</defs>
				<clipPath id="SVGID_10_">
					<use xlink:href="#SVGID_9_"  style="overflow:visible;"/>
				</clipPath>
				<path class="st4" d="M403.4,54c0-11.7,0-23,0-34.3c0-1.3,0.8-1.3,1.6-1.3c4.3,0,8.6-0.1,12.9,0c1.3,0,1.8-0.3,1.6-1.6
					c-0.1-0.4-0.1-0.9,0-1.3c0.2-1.4-0.4-2-1.9-1.9c-6,0.1-12,0.1-18,0c-1.5,0-1.9,0.5-1.9,1.9c0.1,19.1,0.1,38.4,0,57.5
					c0,1.4,0.4,1.9,1.9,1.9c6-0.1,12-0.1,18,0c1.6,0,2.2-0.5,2-2.1c-0.1-0.3-0.1-0.6,0-0.9c0.3-1.6-0.5-2.1-2-2
					c-4.1,0.1-8.1,0-12.2,0.1c-1.4,0-2.1-0.3-2-1.9c0.1-2.6,0.1-5.1,0-7.7c-0.1-1.4,0.5-1.7,1.8-1.7c3,0.1,6.1-0.1,9.2,0.1
					c2.2,0.1,2-1.1,2-2.5c0.1-1.5-0.1-2.4-2-2.4C410.8,54.1,407.2,54,403.4,54"/>
			</g>
		</g>
		<g>
			<g>
				<defs>
					<rect id="SVGID_11_" x="-72.1" y="-179.4" width="560.4" height="527.7"/>
				</defs>
				<clipPath id="SVGID_12_">
					<use xlink:href="#SVGID_11_"  style="overflow:visible;"/>
				</clipPath>
				<path class="st5" d="M208.5,63.9c0.2-1.3,0.4-2.6,0.5-4c1.5-10.3,3-20.5,4.6-30.8c0.7-4.8,1.5-9.4,2.2-14.1
					c0.1-1,0.5-1.3,1.5-1.3c5-0.3,5-0.3,5.2,4.6c0.4,9.6,0.7,19.3,1.1,28.9c0.3,8.6,0.6,17.1,1.1,25.7c0.1,1.8-0.5,2.4-2.2,2.1
					c-0.1,0-0.1,0-0.2,0c-3.2,0-2.8,0.3-2.8-2.8c-0.3-10.7-0.7-21.4-1-32.1c-0.1-3.3,0.2-6.6,0.3-9.8c0-0.6,0-1.3,0-1.9
					c-0.2,0-0.3,0-0.5-0.1c-0.5,3.3-1,6.7-1.5,10c-1.5,9.1-3,18.2-4.5,27.2c-0.4,2.3-0.8,4.6-1.3,6.9c-0.1,0.5-0.9,1.1-1.3,1.1
					c-4.2,0.3-4.1,0.3-4.8-3.8c-1.4-8.1-2.9-16.2-4.2-24.4c-0.8-5.1-1.3-10.2-2-15.3c-0.1-0.7-0.3-1.4-0.9-2.1
					c-0.1,0.5-0.1,1-0.1,1.5c-0.1,8.2-0.2,16.4-0.4,24.6c-0.1,6.1-0.5,12.4-0.7,18.5c-0.1,0.8-0.5,2.1-0.9,2.2
					c-1.3,0.3-2.6,0.1-3.9-0.1c-0.1,0-0.3-0.6-0.3-0.9c0.1-4.9,0.3-9.8,0.5-14.7c0.1-3.6,0.4-7.3,0.5-11c0.2-5.4,0.3-10.9,0.5-16.4
					c0.2-5.6,0.5-11.2,0.7-16.8c0-0.9,0.4-1.3,1.3-1.3c0.1,0,0.3,0,0.3,0c5.7,0.1,4.4-0.9,5.4,4.4c2.1,11,4.1,22.1,5.9,33.1
					c0.6,3.6,0.8,7.3,1.2,10.9c0.1,0.6,0.1,1.2,0.2,1.7C208.1,63.9,208.3,63.9,208.5,63.9"/>
			</g>
		</g>
		<g>
			<g>
				<defs>
					<rect id="SVGID_13_" x="-72.1" y="-179.4" width="560.4" height="527.7"/>
				</defs>
				<clipPath id="SVGID_14_">
					<use xlink:href="#SVGID_13_"  style="overflow:visible;"/>
				</clipPath>
				<path class="st6" d="M221.6,124.4c0-6.1-0.1-12.2,0-18.4c0.1-4.9,1.7-9.2,6.3-11.5c6.7-3.4,16.2-1,17.8,8.9
					c0.3,1.5,0.3,3,0.3,4.5c0,11.4,0.1,22.6-0.1,34c0,2.2-0.6,4.6-1.4,6.8c-1.1,3-3.4,5.1-6.5,6.1c-1.1,0.3-1.5,0.9-1.5,2
					c0.1,1.9,0,3.8,0,5.7c0,0.9-0.3,1.3-1.3,1.3c-3.9,0.3-3.9,0.3-3.9-3.7c0-0.2,0-0.4,0-0.5c0.4-2.8-0.3-4.4-3.3-5.5
					c-5-1.9-6.6-6.5-6.7-11.5C221.5,136.5,221.6,130.4,221.6,124.4 M240.7,124.3c0-6.3,0-12.7,0-19.1c0-3.9-2.4-6.9-5.6-7.3
					c-4.1-0.4-7,1.6-7.6,5.9c-0.5,3.6-0.3,7.3-0.3,11c0,9.3-0.1,18.5,0,27.9c0,5.6,4.4,9.1,9.2,7.4c2.6-0.9,4.3-3.6,4.3-7
					C240.7,136.7,240.7,130.5,240.7,124.3"/>
			</g>
		</g>
		<g>
			<g>
				<defs>
					<rect id="SVGID_15_" x="-72.1" y="-179.4" width="560.4" height="527.7"/>
				</defs>
				<clipPath id="SVGID_16_">
					<use xlink:href="#SVGID_15_"  style="overflow:visible;"/>
				</clipPath>
				<path class="st7" d="M285.5,56.1c2.1,1.4,4,3.3,4.2,5.9c0.3,4,0.1,8,0.1,12c0,0.3-0.3,0.8-0.5,0.8c-1.5,0.1-2.9,0.1-4.3,0
					c-0.3,0-0.6-0.9-0.6-1.4c-0.1-3.1,0-6.2-0.1-9.4c0-3-1.7-4.8-4.8-4.9c-2.2-0.1-4.3,0.1-6.5,0c-1.3-0.1-1.6,0.5-1.6,1.7
					c0.1,4.1,0,8.1,0.1,12.2c0,1.3-0.3,1.9-1.8,1.9c-3.8-0.1-3.8,0-3.8-3.8c0-18.4,0-36.8-0.1-55.2c0-1.9,0.5-2.4,2.3-2.2
					c3.7,0.2,7.5-0.1,11.1,0.3c6.3,0.9,10,5.2,10.1,11.8c0.1,7.1,0.1,14.3,0,21.4C289.3,50.4,288.5,52,285.5,56.1 M271.4,36.4v12.9
					c0,4.9,0,4.9,5,4.9c4.1,0,7.3-2.4,7.5-6.4c0.3-7.9,0.2-15.8,0-23.7c-0.1-3.4-3-5.6-6.5-5.7c-1.3-0.1-2.6,0.1-4-0.1
					c-1.5-0.1-2,0.5-1.9,2C271.5,25.8,271.4,31.2,271.4,36.4"/>
			</g>
		</g>
		<g>
			<g>
				<defs>
					<rect id="SVGID_17_" x="-72.1" y="-179.4" width="560.4" height="527.7"/>
				</defs>
				<clipPath id="SVGID_18_">
					<use xlink:href="#SVGID_17_"  style="overflow:visible;"/>
				</clipPath>
				<path class="st8" d="M332.5,39.8c0-8.1,0.1-16-0.1-24.1c0-1.6,0.5-2.1,2-2c3.6,0.1,3.2-0.5,3.2,3.3c0,14.5,0,29,0,43.5
					c0,1.9,0.2,3.7,0.7,5.5c0.9,3.2,3.6,5.1,6.5,4.9c3.6-0.3,5.9-2.4,6.3-6c0.1-1.4,0.3-2.8,0.3-4.1c0-14.9,0-29.7,0-44.6
					c0-0.8,0.3-2.2,0.5-2.2c1.5-0.2,3-0.1,4.4,0.1c0.1,0,0.3,1.1,0.3,1.6c0,8.1,0,16.2,0,24.3c0,7.9,0.1,15.9-0.1,23.7
					c-0.1,5.3-3.3,9.8-7.9,11.3c-8.3,2.8-16.2-2.9-16.3-11.6C332.4,55.5,332.5,47.7,332.5,39.8"/>
			</g>
		</g>
		<g>
			<g>
				<defs>
					<rect id="SVGID_19_" x="-72.1" y="-179.4" width="560.4" height="527.7"/>
				</defs>
				<clipPath id="SVGID_20_">
					<use xlink:href="#SVGID_19_"  style="overflow:visible;"/>
				</clipPath>
				<path class="st9" d="M253.3,119.2c0-8.1,0.1-16-0.1-24.1c0-1.6,0.5-2,2-2c3.6,0.1,3.2-0.5,3.2,3.3c0,14.5,0,29,0,43.5
					c0,1.9,0.2,3.7,0.7,5.5c0.9,3.2,3.6,5.1,6.5,4.9c3.6-0.3,5.9-2.4,6.3-6c0.1-1.4,0.3-2.8,0.3-4.1c0-14.9,0-29.7,0-44.6
					c0-0.8,0.3-2.2,0.5-2.2c1.5-0.2,3-0.1,4.4,0.1c0.1,0,0.3,1.1,0.3,1.6c0,8.1,0,16.2,0,24.3c0,7.9,0.1,15.9-0.1,23.7
					c-0.1,5.3-3.3,9.8-7.9,11.3c-8.3,2.8-16.2-2.9-16.3-11.6C253.3,134.9,253.3,127,253.3,119.2"/>
			</g>
		</g>
		<g>
			<g>
				<defs>
					<rect id="SVGID_21_" x="-72.1" y="-179.4" width="560.4" height="527.7"/>
				</defs>
				<clipPath id="SVGID_22_">
					<use xlink:href="#SVGID_21_"  style="overflow:visible;"/>
				</clipPath>
				<path class="st10" d="M257.1,74.7c-0.3,0.1-0.4,0.2-0.5,0.2c-4.5,0.4-4.6,0.4-5.3-4c-0.6-3.5-1.1-6.9-1.5-10.4
					c-0.1-1.3-0.7-1.8-1.9-1.7c-2,0.1-4.1,0.1-6.1,0c-1,0-1.5,0.3-1.6,1.4c-0.7,4.4-1.5,8.7-2,13.1c-0.2,1.3-0.6,1.7-1.9,1.7
					c-3.8,0-3.8,0.1-3.2-3.7c2.3-14.7,4.6-29.5,6.8-44.2c0.6-3.9,1.2-7.8,1.8-11.7c0.2-1.2,0.7-1.7,2-1.7c5.4,0.1,4.1-0.7,5,4.4
					c1.6,9.6,3,19.4,4.6,29c1.4,8.6,2.7,17.3,4,26C257.2,73.6,257.1,74.1,257.1,74.7 M240.9,54.3c2.3,0,4.4-0.1,6.5,0
					c1.3,0.1,1.5-0.6,1.3-1.6c-1-7.2-1.9-14.4-2.8-21.7c-0.2-1.6-0.5-3.2-0.7-4.8c-0.1,0-0.3,0-0.5,0
					C243.4,35.5,242.1,44.8,240.9,54.3"/>
			</g>
		</g>
		<g>
			<g>
				<defs>
					<rect id="SVGID_23_" x="-72.1" y="-179.4" width="560.4" height="527.7"/>
				</defs>
				<clipPath id="SVGID_24_">
					<use xlink:href="#SVGID_23_"  style="overflow:visible;"/>
				</clipPath>
				<path class="st11" d="M367.4,44.3c0-9.5,0.1-19.1-0.1-28.6c0-1.6,0.5-2.1,2-2c6.1,0.1,12.1,0.1,18.2,0c1.5,0,2.1,0.5,1.9,1.9
					c-0.1,0.4-0.1,0.9,0,1.3c0.2,1.3-0.5,1.6-1.6,1.6c-4.4-0.1-8.8,0-13.1-0.1c-1.3,0-1.8,0.5-1.8,1.8c0.1,10.7,0.1,21.3,0,32
					c0,1.4,0.5,1.9,1.9,1.8c3.2-0.1,6.5,0,9.7-0.1c1.4-0.1,1.8,0.4,1.7,1.7c-0.1,3.5,0.4,3-3.1,3c-2.8,0-5.6,0.1-8.5,0
					c-1.3,0-1.9,0.5-1.8,1.8c0.1,2.5,0.1,5,0,7.5c-0.1,1.4,0.5,2.1,2,2c4.2-0.1,8.4,0.1,12.6-0.1c1.6-0.1,2.2,0.5,2,2.1
					c-0.1,0.4-0.1,0.9,0,1.3c0.1,1.3-0.4,1.6-1.6,1.6c-6.2-0.1-12.5-0.1-18.7,0c-1.4,0-1.7-0.5-1.7-1.8
					C367.4,63.6,367.4,53.9,367.4,44.3"/>
			</g>
		</g>
		<g>
			<g>
				<defs>
					<rect id="SVGID_25_" x="-72.1" y="-179.4" width="560.4" height="527.7"/>
				</defs>
				<clipPath id="SVGID_26_">
					<use xlink:href="#SVGID_25_"  style="overflow:visible;"/>
				</clipPath>
				<path class="st12" d="M403.4,54c3.8,0,7.4,0.1,11-0.1c2-0.1,2,0.9,2,2.4c-0.1,1.4,0.1,2.6-2,2.5c-3-0.2-6.1,0-9.2-0.1
					c-1.3,0-1.9,0.3-1.8,1.7c0.1,2.6,0.1,5.1,0,7.7c-0.1,1.6,0.7,1.9,2,1.9c4.1-0.1,8.1,0.1,12.2-0.1c1.5,0,2.3,0.4,2,2
					c-0.1,0.3-0.1,0.6,0,0.9c0.3,1.6-0.3,2.1-2,2.1c-6-0.1-12-0.1-18,0c-1.5,0-1.9-0.5-1.9-1.9c0.1-19.1,0.1-38.4,0-57.5
					c0-1.4,0.4-2,1.9-1.9c6,0.1,12,0.1,18,0c1.5,0,2.1,0.5,1.9,1.9c-0.1,0.4-0.1,0.9,0,1.3c0.1,1.3-0.4,1.6-1.6,1.6
					c-4.3-0.1-8.6,0-12.9,0c-0.9,0-1.6-0.1-1.6,1.3C403.4,31,403.4,42.3,403.4,54"/>
			</g>
		</g>
		<g>
			<g>
				<defs>
					<rect id="SVGID_27_" x="-72.1" y="-179.4" width="560.4" height="527.7"/>
				</defs>
				<clipPath id="SVGID_28_">
					<use xlink:href="#SVGID_27_"  style="overflow:visible;"/>
				</clipPath>
				<path class="st13" d="M197,133.4c3.8,0,7.4,0.1,11-0.1c2-0.1,2.1,0.9,2.1,2.4c-0.1,1.5,0.1,2.6-2.1,2.5c-3-0.2-6.1,0-9.2-0.1
					c-1.3,0-1.9,0.3-1.8,1.7c0.1,2.6,0.1,5.1,0,7.7c-0.1,1.6,0.7,1.9,2,1.9c4.1-0.1,8.1,0.1,12.2-0.1c1.5,0,2.3,0.4,2.1,2
					c-0.1,0.3-0.1,0.6,0,0.9c0.3,1.6-0.3,2-2,2c-6-0.1-11.9-0.1-18,0c-1.4,0-1.9-0.5-1.9-1.9c0.1-19.1,0.1-38.4,0-57.5
					c0-1.5,0.4-2,1.9-1.9c6,0.1,11.9,0.1,18,0c1.5,0,2.1,0.5,1.9,1.9c-0.1,0.4-0.1,0.9,0,1.3c0.1,1.3-0.4,1.6-1.6,1.6
					c-4.3-0.1-8.6,0-12.9,0c-0.9,0-1.6-0.1-1.6,1.3C197,110.4,197,121.7,197,133.4"/>
			</g>
		</g>
		<g>
			<g>
				<defs>
					<rect id="SVGID_29_" x="-72.1" y="-179.4" width="560.4" height="527.7"/>
				</defs>
				<clipPath id="SVGID_30_">
					<use xlink:href="#SVGID_29_"  style="overflow:visible;"/>
				</clipPath>
				<path class="st14" d="M316.6,127.3c0-9.4,0-18.9,0-28.3c0-0.9,0-0.9-0.9-0.9c-3.9,0-7.7,0-11.6,0c-0.9,0-0.9,0-0.9-0.9
					c0-1.1,0-2.3,0-3.4c0-0.4,0.1-0.6,0.5-0.6c10.2,0,20.3,0,30.4,0c0.5,0,0.5,0.1,0.5,0.6c0,1.3,0,2.5,0,3.8c0,0.5-0.2,0.6-0.7,0.6
					c-4,0-7.9,0-11.8,0c-0.9,0-0.9,0-0.9,0.9c0,18.9,0,37.8,0,56.6c0,0.9,0,0.9-0.9,0.9c-1.1,0-2.2,0-3.4,0c-0.5,0-0.7-0.2-0.7-0.7
					C316.6,146.3,316.6,136.8,316.6,127.3"/>
			</g>
		</g>
		<g>
			<g>
				<defs>
					<rect id="SVGID_31_" x="-72.1" y="-179.4" width="560.4" height="527.7"/>
				</defs>
				<clipPath id="SVGID_32_">
					<use xlink:href="#SVGID_31_"  style="overflow:visible;"/>
				</clipPath>
				<path class="st15" d="M351.7,136.7c0,6.3,0,12.7,0,19c0,0.5,0.1,0.7,0.7,0.7c1.2-0.1,2.4,0,3.5,0c0.7,0,0.7,0,0.7-0.8
					c0-10.9,0-21.8,0-32.7c0-1.8,0-3.6,0-5.4c0-0.3,0.1-0.5,0.4-0.7c3-0.9,5.2-2.8,7-5.4c1.8-2.6,3-5.4,3.1-8.5
					c0.1-3.1,0.1-6.2,0.1-9.3c0-0.5-0.1-0.5-0.6-0.5c-1.3,0-2.5,0-3.8,0c-0.5,0-0.5,0.1-0.5,0.6c0,1.9,0,3.9,0,5.8
					c0,1.3,0.1,2.6-0.1,3.8c-0.5,3-1.9,5.6-4.2,7.6c-2.2,1.9-4.8,2-7,0.4c-3.2-2.3-4.8-5.5-4.9-9.3c-0.1-2.8,0-5.5,0-8.3
					c0-0.5-0.1-0.6-0.6-0.6c-1.3,0-2.4,0.1-3.7,0c-0.5,0-0.7,0.2-0.7,0.7c0,2.6,0,5.2,0,7.9c0,3.4,1,6.5,2.8,9.2
					c1.7,2.7,4,4.8,7.1,5.8c0.6,0.2,0.7,0.5,0.7,1.1C351.7,124.2,351.7,130.5,351.7,136.7"/>
			</g>
		</g>
		<g>
			<g>
				<defs>
					<rect id="SVGID_33_" x="-72.1" y="-179.4" width="560.4" height="527.7"/>
				</defs>
				<clipPath id="SVGID_34_">
					<use xlink:href="#SVGID_33_"  style="overflow:visible;"/>
				</clipPath>
				<path class="st16" d="M351.7,136.7c0-6.3,0-12.6,0-18.9c0-0.6-0.1-0.9-0.7-1.1c-3.1-1.1-5.4-3.2-7.1-5.8
					c-1.9-2.8-2.8-5.9-2.8-9.2c0-2.6,0-5.2,0-7.9c0-0.5,0.1-0.7,0.7-0.7c1.3,0.1,2.4,0,3.7,0c0.5,0,0.6,0.1,0.6,0.6
					c0,2.8-0.1,5.5,0,8.3c0.1,3.9,1.7,7.1,4.9,9.3c2.3,1.6,4.8,1.5,7-0.4c2.4-2,3.8-4.6,4.2-7.6c0.2-1.3,0.1-2.5,0.1-3.8
					c0-1.9,0-3.9,0-5.8c0-0.4,0.1-0.6,0.5-0.6c1.3,0,2.5,0,3.8,0c0.4,0,0.6,0.1,0.6,0.5c0,3.1,0.1,6.2-0.1,9.3
					c-0.1,3.1-1.3,5.9-3.1,8.5c-1.8,2.5-4,4.5-7,5.4c-0.4,0.1-0.4,0.3-0.4,0.7c0,1.8,0,3.6,0,5.4c0,10.9,0,21.8,0,32.7
					c0,0.8,0,0.8-0.7,0.8c-1.2,0-2.4,0-3.5,0c-0.5,0-0.7-0.2-0.7-0.7C351.7,149.4,351.7,143.1,351.7,136.7"/>
			</g>
		</g>
		<g>
			<g>
				<defs>
					<rect id="SVGID_35_" x="-72.1" y="-179.4" width="560.4" height="527.7"/>
				</defs>
				<clipPath id="SVGID_36_">
					<use xlink:href="#SVGID_35_"  style="overflow:visible;"/>
				</clipPath>
				<rect x="289.6" y="93" class="st17" width="5" height="63.3"/>
			</g>
		</g>
		<g>
			<g>
				<defs>
					<rect id="SVGID_37_" x="-72.1" y="-179.4" width="560.4" height="527.7"/>
				</defs>
				<clipPath id="SVGID_38_">
					<use xlink:href="#SVGID_37_"  style="overflow:visible;"/>
				</clipPath>
				<path class="st18" d="M298.5,42.4c0-6.1-0.1-12.2,0-18.4c0.1-4.9,1.7-9.2,6.3-11.5c6.7-3.4,16.2-1,17.8,8.9
					c0.3,1.4,0.3,3,0.3,4.5c0,11.4,0.1,22.6-0.1,34c0,2.2-0.6,4.6-1.4,6.8c-1.1,3-3.4,5.1-6.5,6.1c-1.1,0.3-1.5,0.9-1.5,2.1
					c0.1,1.9,0,3.8,0,5.7c0,0.9-0.3,1.3-1.3,1.3c-3.9,0.3-3.9,0.3-3.9-3.7c0-0.2,0-0.4,0-0.5c0.4-2.8-0.3-4.4-3.3-5.6
					c-5-1.9-6.6-6.5-6.7-11.6C298.3,54.5,298.5,48.4,298.5,42.4 M317.5,42.3c0-6.3,0-12.7,0-19.1c0-3.9-2.4-6.9-5.6-7.3
					c-4.1-0.4-7,1.6-7.6,5.9c-0.5,3.6-0.3,7.3-0.3,11c0,9.3-0.1,18.6,0,27.9c0,5.6,4.4,9.1,9.2,7.4c2.6-0.9,4.3-3.6,4.3-7
					C317.5,54.7,317.5,48.5,317.5,42.3"/>
			</g>
		</g>
	</g>
	<g>
		<path class="st19" d="M451.2,16.5L451.2,16.5L451.2,16.5c0-2.9-1.2-5.6-3.1-7.5c-1.9-1.9-4.6-3.1-7.5-3.1l0,0h0l0,0l0,0
			c-2.9,0-5.6,1.2-7.5,3.1c-1.9,1.9-3.1,4.6-3.1,7.5l0,0v0l0,0l0,0c0,1.9,0.5,3.8,1.5,5.4c1.8,3.1,5.3,5.3,9.2,5.3l0,0h0l0,0l0,0
			c2.9,0,5.6-1.2,7.5-3.1c0.3-0.3,0.6-0.6,0.9-1C450.4,21.2,451.2,19,451.2,16.5L451.2,16.5z M435.9,21.9V10.7h5.8
			c1.1,0,1.9,0.1,2.5,0.3c0.6,0.2,1,0.5,1.4,1s0.5,1.1,0.5,1.8c0,0.6-0.1,1.2-0.4,1.6s-0.6,0.8-1.1,1.1c-0.3,0.2-0.7,0.3-1.2,0.4
			c0.4,0.1,0.7,0.3,0.9,0.4c0.1,0.1,0.3,0.3,0.5,0.6s0.4,0.5,0.5,0.7l1.7,3.3H443l-1.9-3.4c-0.2-0.4-0.4-0.7-0.6-0.9
			c-0.3-0.2-0.5-0.3-0.9-0.3h-0.3V22L435.9,21.9L435.9,21.9z M439.4,15.3h1.5c0.2,0,0.5-0.1,0.9-0.1c0.2-0.1,0.4-0.2,0.6-0.4
			c0.1-0.2,0.2-0.4,0.2-0.6c0-0.4-0.1-0.6-0.4-0.8c-0.2-0.2-0.7-0.3-1.3-0.3h-1.5V15.3L439.4,15.3z M454.1,16.5L454.1,16.5
			L454.1,16.5c0,3.1-1,6-2.8,8.3c-0.4,0.4-0.7,0.9-1.1,1.3c-2.4,2.4-5.8,3.9-9.5,3.9v0l0,0h0v0c-5,0-9.3-2.7-11.6-6.7
			c-1.2-2-1.8-4.3-1.8-6.8h0l0,0v0h0c0-3.7,1.5-7.1,4-9.6s5.8-3.9,9.5-3.9v0l0,0h0v0c3.7,0,7.1,1.5,9.5,3.9
			C452.6,9.4,454.1,12.8,454.1,16.5L454.1,16.5z"/>
	</g>
</g>
</svg>
